# xmcd
#
# Track frame offsets: 
#        150
#        10177
#        24669
#        48817
#        63235
#        73857
#        81187
#        89850
#        102720
#        134174
#        150698
#        176749
#        179226
#
# Disc length: 2726 seconds
#
# Revision: 0
# Processed by: cddbd v1.5.2PL0 Copyright (c) Steve Scherf et al.
# Submitted via: ExactAudioCopy v0.95b4
#
DISCID=c10aa40d
DTITLE=The White Stripes - 2007-07-05-Molson Amphitheatre-Toronto(Disc
DTITLE=1)
DYEAR=2007
DGENRE=Blues
TTITLE0=When I Hear My Name
TTITLE1=Dead Leaves and the Dirty Ground
TTITLE2=Icky Thump
TTITLE3=Effect and Cause
TTITLE4=Hotel Yorba
TTITLE5=You're Pretty Good Looking
TTITLE6=Hello Operator
TTITLE7=Cannon
TTITLE8=Death Letter
TTITLE9=Jolene
TTITLE10=I'm Slowly Turning Into You
TTITLE11=I Think I Smell a Rat riff
TTITLE12=A Martyr For My Love For You
EXTD=
EXTT0=
EXTT1=
EXTT2=
EXTT3=
EXTT4=
EXTT5=
EXTT6=
EXTT7=
EXTT8=
EXTT9=
EXTT10=
EXTT11=
EXTT12=
PLAYORDER=
